<svg width="34" height="34" viewBox="0 0 34 34" fill="none" xmlns="http://www.w3.org/2000/svg">
<circle cx="17" cy="17" r="17" fill="#1680EA"/>
<path d="M12.7013 10.4033L13.4973 9.99796C14.2438 9.61836 15.1513 9.88786 15.6179 10.6274L16.5469 12.1007C16.9511 12.7422 16.9209 13.5795 16.4724 14.1701L15.2222 15.8143C15.4503 16.6391 15.8675 17.4195 16.4729 18.1556C17.0502 18.8692 17.7648 19.4597 18.5744 19.8921L20.254 19.0096C20.8902 18.676 21.6659 18.8147 22.1767 19.354L23.3692 20.6097C23.9641 21.237 24.0359 22.2235 23.5379 22.9183L23.0047 23.6629C22.4733 24.404 21.6035 24.7837 20.7218 24.6582C18.6389 24.3631 16.5192 22.8251 14.3597 20.0446C12.1971 17.2597 11.1868 14.7614 11.3299 12.5526C11.39 11.6232 11.9112 10.8052 12.7013 10.4033Z" fill="white"/>
</svg>
